<svg xmlns="http://www.w3.org/2000/svg" xmlns:xlink="http://www.w3.org/1999/xlink" width="320" height="206" viewBox="0 0 320 206">
    <defs>
        <path id="a" d="M0 .294h84.85v6.089H0z"/>
    </defs>
    <g fill="none" fill-rule="evenodd">
        <rect width="320" height="206" fill="#F5F5F5" rx="8"/>
        <path stroke="#616161" stroke-dasharray="3" stroke-width="2" d="M103.98 108.298s-.684-31.243 11.468-21.13c2.65 3.079-7.933 15.903-19.442.88 0 0-8.066-14.237 21.483-8.755 29.55 5.482 74.125 8.971 74.125 8.971s24.549-.331 21.043-14.287c0 0-1.546-5.056-8.395-5.935 0 0-10.645 3.276-3.132 8.759 7.513 5.482 13.522-1.495 14.024-4.485.5-2.99.817-22.742.817-22.742"/>
        <g transform="translate(111.678 102.852)">
            <mask id="b" fill="#fff">
                <use xlink:href="#a"/>
            </mask>
            <path fill="#616161" fill-opacity=".1" d="M84.423 3.045c0 1.681-17.272 3.044-38.577 3.044S7.27 4.726 7.27 3.045C7.27 1.363 24.54 0 45.846 0s38.577 1.363 38.577 3.045" mask="url(#b)"/>
        </g>
        <path fill="#FFF" d="M130.287 103.153h55.104V54.966h-55.104z"/>
        <path stroke="#616161" stroke-width="2" d="M130.287 103.153h55.104V54.966h-55.104z"/>
        <path fill="#FFF" d="M127.346 100.625h60.987V47.293h-60.987z"/>
        <path stroke="#616161" stroke-width="2" d="M127.346 100.625h60.987V47.293h-60.987z"/>
        <path fill="#FFF" d="M125.79 98.316h64.497V41.915h-64.498z"/>
        <path stroke="#616161" stroke-width="2" d="M125.79 98.085h64.144v-56.17H125.79z"/>
        <path fill="#FFA087" stroke="#616161" stroke-width="2" d="M125.79 55.54h64.144V41.916H125.79z"/>
        <path fill="#FFF" d="M132.97 45.356h5.429v-7.78h-5.43z"/>
        <path stroke="#616161" stroke-width="2" d="M132.97 45.356h5.429v-7.78h-5.43z"/>
        <path fill="#FFF" d="M143.656 45.356h5.429v-7.78h-5.43z"/>
        <path stroke="#616161" stroke-width="2" d="M144.178 45.356h5.428v-7.78h-5.428z"/>
        <path fill="#FFF" d="M155.296 45.356h5.429v-7.78h-5.429z"/>
        <path stroke="#616161" stroke-width="2" d="M155.63 45.356h5.428v-7.78h-5.428z"/>
        <path fill="#FFF" d="M166.842 45.356h5.429v-7.78h-5.429z"/>
        <path stroke="#616161" stroke-width="2" d="M167.176 45.356h5.428v-7.78h-5.428z"/>
        <path fill="#FFF" d="M177.866 45.356h5.43v-7.78h-5.43z"/>
        <path stroke="#616161" stroke-width="2" d="M177.96 45.356h5.43v-7.78h-5.43z"/>
        <path stroke="#616161" stroke-dasharray="3" stroke-width="2.563" d="M125.296 50.654h64.145"/>
        <path stroke="#616161" stroke-width="2.563" d="M115.075 43.271l2.968-.295M118.34 34.56l2.819 2.805M126.649 30.426v3.69"/>
        <path fill="#FFF" d="M141.669 70.222c0 .695-.566 1.259-1.265 1.259a1.261 1.261 0 0 1-1.264-1.259c0-.695.566-1.258 1.264-1.258.699 0 1.265.563 1.265 1.258"/>
        <path stroke="#616161" stroke-width="2.563" d="M141.575 70.068c0 .695-.566 1.258-1.264 1.258a1.261 1.261 0 0 1-1.265-1.258c0-.695.566-1.258 1.265-1.258.698 0 1.264.563 1.264 1.258z"/>
        <path fill="#FFF" d="M176.535 70.222c0 .695-.566 1.259-1.265 1.259a1.261 1.261 0 0 1-1.264-1.259c0-.695.566-1.258 1.264-1.258.699 0 1.265.563 1.265 1.258"/>
        <path stroke="#616161" stroke-width="2.563" d="M176.64 70.068c0 .695-.565 1.258-1.264 1.258a1.261 1.261 0 0 1-1.264-1.258c0-.695.566-1.258 1.264-1.258.7 0 1.265.563 1.265 1.258z"/>
        <path stroke="#616161" stroke-width="3" d="M152.73 83.916h10.116"/>
        <path fill="#FFF" stroke="#616161" stroke-width="2" d="M214.56 44.784c0 2.013-1.684 3.646-3.76 3.646-2.077 0-3.76-1.633-3.76-3.646s1.683-3.645 3.76-3.645c2.076 0 3.76 1.632 3.76 3.645zM224.778 44.784c0 2.013-1.683 3.646-3.76 3.646-2.076 0-3.76-1.633-3.76-3.646s1.684-3.645 3.76-3.645c2.077 0 3.76 1.632 3.76 3.645z"/>
        <path fill="#FFF" stroke="#616161" stroke-width="2" d="M218.416 44.592c0 2.967-1.123 5.373-2.507 5.373-1.384 0-2.507-2.406-2.507-5.373s1.123-5.372 2.507-5.372c1.384 0 2.507 2.405 2.507 5.372z"/>
        <path stroke="#616161" stroke-width="2" d="M212.599 37.234l2.314 2.303M219.189 37.234l-2.314 2.303"/>
        <text font-family="OpenSans-Bold, Open Sans" font-size="20" font-weight="bold">
            <tspan x="38.062" y="151" fill="#212121">Oops! No events for now</tspan> <tspan x="34.701" y="178" fill="#616161" font-family="OpenSans, Open Sans" font-size="14" font-weight="normal">Watch this space for upcoming events!</tspan>
        </text>
    </g>
</svg>
